<svg xmlns="http://www.w3.org/2000/svg" width="16" height="16" viewBox="0 0 16 16"><path stroke="#449FDB" opacity=".3" d="M0 496h512"/><path d="M0 8.694c0 .725.068 1.381.203 1.968s.323 1.097.563 1.53c.24.433.545.814.915 1.142s.772.597 1.205.806c.433.209.927.378 1.483.509s1.123.222 1.702.274c.579.052 1.215.078 1.909.078.699 0 1.338-.026 1.917-.078s1.148-.143 1.706-.274c.558-.13 1.055-.3 1.49-.509s.84-.477 1.213-.806c.373-.329.681-.709.923-1.142s.432-.943.567-1.53c.136-.587.203-1.243.203-1.968 0-1.294-.433-2.412-1.299-3.357.047-.125.09-.267.129-.426s.076-.386.11-.681c.034-.295.021-.635-.039-1.021s-.171-.78-.333-1.181l-.117-.023c-.083-.016-.22-.012-.411.012s-.412.07-.665.141c-.253.07-.579.206-.978.407s-.82.452-1.264.755c-.761-.209-1.807-.313-3.137-.313-1.325 0-2.368.104-3.13.313-.443-.303-.867-.554-1.271-.755s-.726-.336-.966-.407c-.24-.07-.464-.116-.673-.137l-.395-.02-.129.027c-.162.402-.273.795-.333 1.181s-.073.726-.039 1.021c.034.295.07.522.11.681l.129.426c-.866.944-1.299 2.063-1.299 3.357zm1.964 1.964c0-.751.342-1.44 1.025-2.066.203-.188.441-.33.712-.426s.578-.151.919-.164c.342-.013.669-.01.982.008l1.158.074c.459.031.855.047 1.189.047s.73-.016 1.189-.047l1.158-.074s.64-.021.982-.008c.342.013.648.068.919.164s.508.239.712.426c.683.616 1.025 1.304 1.025 2.066 0 .449-.056.846-.168 1.193s-.256.638-.43.872c-.175.235-.417.434-.728.599s-.613.291-.908.38c-.295.089-.673.158-1.134.207s-.874.08-1.236.09c-.363.01-.823.016-1.381.016s-1.018-.005-1.381-.016c-.362-.01-.775-.04-1.236-.09s-.84-.119-1.134-.207c-.295-.089-.597-.215-.908-.38s-.553-.364-.728-.599c-.175-.235-.318-.525-.43-.872s-.168-.745-.168-1.193zm8.036-.158c0-.828.448-1.5 1-1.5s1 .672 1 1.5-.448 1.5-1 1.5-1-.672-1-1.5zm-6 0c0-.828.448-1.5 1-1.5s1 .672 1 1.5-.448 1.5-1 1.5-1-.672-1-1.5z" fill="#fff"/></svg>